<?xml version="1.0" standalone="no"?>
<!DOCTYPE svg PUBLIC "-//W3C//DTD SVG 1.1//EN" "http://www.w3.org/Graphics/SVG/1.1/DTD/svg11.dtd">
<svg xmlns="http://www.w3.org/2000/svg" viewBox="0 0 445.65 70.49" width="445.6499938964844" height="70.48999786376953"><defs><style>.cls-1{fill:#eb2590;}</style></defs><title>Asset 1</title><g id="Layer_2" data-name="Layer 2"><g id="Layer_1-2" data-name="Layer 1"><path class="cls-1" d="M36.61,0A.87.87,0,0,0,37,.07c.81,0,1.62.11,2.42.21A33.85,33.85,0,0,1,45.1,1.41a35.44,35.44,0,0,1,24.59,26,35.52,35.52,0,0,1,.83,5.9,36,36,0,0,1,0,4.76A34.92,34.92,0,0,1,66.22,52.2a34.54,34.54,0,0,1-5.15,7.09A35,35,0,0,1,43.79,69.45a30.32,30.32,0,0,1-5,.85l-1.26.11a.89.89,0,0,0-.43.08H33.6a.9.9,0,0,0-.42-.08l-1.26-.11a32.08,32.08,0,0,1-5.34-.93A35.23,35.23,0,0,1,.51,40.49a32.24,32.24,0,0,1-.34-3.38,2,2,0,0,0-.17-.9V34.37a3.05,3.05,0,0,0,.17-.9c0-.48.06-1,.11-1.45a32.16,32.16,0,0,1,.94-5.49A35.37,35.37,0,0,1,24,1.91,34.35,34.35,0,0,1,30.52.37c1-.13,2-.23,3-.29A.94.94,0,0,0,34,0ZM22.11,58.89c.05.15.19.18.3.24A27,27,0,0,0,34.7,62.42a28,28,0,0,0,4.74-.3,22.86,22.86,0,0,0,3.45-.76,10.55,10.55,0,0,0,6.73-13.58,10.07,10.07,0,0,0-3.42-4.61,18.39,18.39,0,0,0-7.1-3.36l-.43-.1a.18.18,0,0,0-.22.14c-.08.24-.15.49-.23.74A29.72,29.72,0,0,1,22.47,58.68,1.88,1.88,0,0,0,22.11,58.89ZM11.72,22c-.06,0-.1.06-.11.09a2.75,2.75,0,0,0-.17.29A26.86,26.86,0,0,0,8.18,34.73,25.26,25.26,0,0,0,8.44,39a25,25,0,0,0,.9,4.12,9.67,9.67,0,0,0,12.53,6.1A9.41,9.41,0,0,0,25.29,47a21.85,21.85,0,0,0,5.07-8.24,1.55,1.55,0,0,0,.08-.23c0-.16,0-.21-.13-.26L29.48,38A29.82,29.82,0,0,1,11.92,22.41C11.87,22.28,11.8,22.16,11.72,22ZM59.36,47.78c.07-.05.11-.06.12-.09l.23-.43a26.93,26.93,0,0,0,2.75-13.78,26.53,26.53,0,0,0-.91-5.39,10.54,10.54,0,0,0-13.38-7.21,10,10,0,0,0-4.93,3.54A18.08,18.08,0,0,0,40,31c0,.14-.08.29-.11.42s0,.26.19.31c.53.11,1,.23,1.56.36A25.9,25.9,0,0,1,59.14,47.27ZM47.91,11.21a1.85,1.85,0,0,0-.26-.16,26.92,26.92,0,0,0-10.2-2.89,26.63,26.63,0,0,0-4.89.07,25.64,25.64,0,0,0-5,1A9.19,9.19,0,0,0,23,12.31a9.58,9.58,0,0,0-2.07,7.55,9,9,0,0,0,2.6,5.2,21.79,21.79,0,0,0,8,5.1.58.58,0,0,0,.35.07A26.13,26.13,0,0,1,47.91,11.21Z"/><path d="M445.64,60.29a1.11,1.11,0,0,1-.48.05H438.8c-.57,0-.54,0-.54-.53V55.25c0-.15,0-.29,0-.44s0-.06-.06-.07-.07,0-.09,0l-.16.18a14.2,14.2,0,0,1-6.05,4.79,18.14,18.14,0,0,1-7.58,1.6,21.42,21.42,0,0,1-5.85-.78,18.42,18.42,0,0,1-11.25-8.93,20.42,20.42,0,0,1-2.35-6.74,24.79,24.79,0,0,1-.27-6.14,21.38,21.38,0,0,1,2.79-9.25,18.39,18.39,0,0,1,11.55-8.7,21.31,21.31,0,0,1,6.06-.66,17.82,17.82,0,0,1,8.26,2.21,13.22,13.22,0,0,1,4.69,4.13c.07.09.12.25.24.22s.08-.21.1-.33,0-.26,0-.38V5.34c0-.16,0-.32,0-.49a.16.16,0,0,1,.18-.18h7.18Q445.64,32.49,445.64,60.29ZM412.46,40.7a14.26,14.26,0,0,0,.06,1.46,15.05,15.05,0,0,0,1,4.44,11.72,11.72,0,0,0,5.22,6.11,12.57,12.57,0,0,0,5.1,1.59,14.81,14.81,0,0,0,5-.31,11.68,11.68,0,0,0,7.51-5.49,14.17,14.17,0,0,0,1.87-5.77,19.1,19.1,0,0,0,0-3.78,15.29,15.29,0,0,0-.9-4,11.69,11.69,0,0,0-7.9-7.36,13.91,13.91,0,0,0-7-.26,11.68,11.68,0,0,0-8.84,7.32A15.48,15.48,0,0,0,412.46,40.7Z"/><path d="M352.46,32.48V60.14a.18.18,0,0,1-.18.19h-6.69c-.6,0-.56,0-.56-.55V55.28c0-.14,0-.27,0-.39a.15.15,0,0,0-.09-.15c-.07,0-.12,0-.16.08l-.09.12a14.34,14.34,0,0,1-5.79,4.67,18.56,18.56,0,0,1-5.14,1.53,19.84,19.84,0,0,1-3.53.16,21.36,21.36,0,0,1-4-.51,18.41,18.41,0,0,1-12.29-9.19,20.87,20.87,0,0,1-2.4-7,26,26,0,0,1-.2-6,21.36,21.36,0,0,1,2-7.52,18.42,18.42,0,0,1,13.3-10.45,21.43,21.43,0,0,1,5.06-.45,18.08,18.08,0,0,1,8.82,2.49,13,13,0,0,1,4.17,3.85,1.39,1.39,0,0,0,.15.19.16.16,0,0,0,.13,0,.15.15,0,0,0,.07-.11c0-.13,0-.26,0-.39V5.35c0-.79-.09-.68.7-.69h6.45c.24,0,.27,0,.28.29s0,.32,0,.49Q352.47,19,352.46,32.48ZM345,40.58c0-.59,0-1.35-.15-2.1a14.79,14.79,0,0,0-1-3.88,11.68,11.68,0,0,0-5.44-6,12.26,12.26,0,0,0-4.61-1.38,14.49,14.49,0,0,0-5.21.31,11.67,11.67,0,0,0-7.95,6.44,14.89,14.89,0,0,0-1.42,5.75,19,19,0,0,0,.08,3,14.72,14.72,0,0,0,1.3,4.74,11.54,11.54,0,0,0,5.84,5.78,12.68,12.68,0,0,0,4.11,1.08,14.44,14.44,0,0,0,4.4-.19,11.74,11.74,0,0,0,9-7.42A16.29,16.29,0,0,0,345,40.58Z"/><path d="M189.39,43.46H173.86a.17.17,0,0,0-.18.19c0,.37,0,.74.07,1.11a10.49,10.49,0,0,0,3.52,6.57,13.58,13.58,0,0,0,5.41,3,14.81,14.81,0,0,0,5.13.57,10.91,10.91,0,0,0,5.7-2,20.81,20.81,0,0,0,3.79-3.47c.06-.07.12-.15.19-.22s.18-.2.39,0l4.05,3.09,1.19.92c.13.1.13.16,0,.28s-.26.33-.39.5a19.74,19.74,0,0,1-11.44,6.84,26.79,26.79,0,0,1-6.75.49,20.89,20.89,0,0,1-6.17-1.18,18.27,18.27,0,0,1-7.07-4.48,19.54,19.54,0,0,1-4.43-7.34,22.23,22.23,0,0,1-1.1-5.35,25.42,25.42,0,0,1-.06-3.49,20.53,20.53,0,0,1,5.42-13.09A19,19,0,0,1,179.86,21a20.3,20.3,0,0,1,4.53-.81,25.77,25.77,0,0,1,3.83,0,17.68,17.68,0,0,1,5.69,1.32,17.41,17.41,0,0,1,9.21,9.14,22.58,22.58,0,0,1,1.45,4.72,28.12,28.12,0,0,1,.55,5.79v2c0,.25,0,.28-.29.28s-.29,0-.43,0Q196.89,43.47,189.39,43.46Zm-3.95-6h11.45c.23,0,.26-.05.25-.26a16,16,0,0,0-.78-4.28,9.64,9.64,0,0,0-6.48-6.31,13.64,13.64,0,0,0-4.26-.56,11.68,11.68,0,0,0-6.22,1.78,11.9,11.9,0,0,0-5.56,7.84,6.63,6.63,0,0,0-.16,1.55c0,.19,0,.23.21.24h11.55Z"/><path d="M383.39,43.46h-15.1c-.66,0-.62,0-.58.65a10.55,10.55,0,0,0,3.9,7.5,13.82,13.82,0,0,0,5.82,2.86,14.67,14.67,0,0,0,4.38.38A10.74,10.74,0,0,0,387.44,53a20.53,20.53,0,0,0,3.9-3.55c.4-.47.28-.46.77-.08L396.93,53c.43.33.41.26.1.65a19.67,19.67,0,0,1-11.16,7,26.31,26.31,0,0,1-7.08.61,21.29,21.29,0,0,1-5.77-1,18.36,18.36,0,0,1-7.73-4.75,19.4,19.4,0,0,1-4.41-7.4,22.65,22.65,0,0,1-1-4.69,24,24,0,0,1-.07-4.8,20.38,20.38,0,0,1,6-13,19.08,19.08,0,0,1,9.14-5,22.51,22.51,0,0,1,6.55-.52,20,20,0,0,1,4.35.67,17.08,17.08,0,0,1,9.16,6.28,18.57,18.57,0,0,1,3.19,6.75,27.35,27.35,0,0,1,.88,7v2.42c0,.15-.05.2-.21.2H383.39Zm-4-6h11.5c.23,0,.26,0,.26-.25s0-.23,0-.34a16.25,16.25,0,0,0-.68-3.72A9.65,9.65,0,0,0,384,26.67a13.36,13.36,0,0,0-4.31-.59,11.67,11.67,0,0,0-2.5.27A12.21,12.21,0,0,0,368,35a10.26,10.26,0,0,0-.33,2.2c0,.19,0,.23.22.25h11.49Z"/><path d="M123.68,32.53V5.4c0-.18,0-.36,0-.54a.17.17,0,0,1,.17-.19h7c.24,0,.27,0,.28.29s0,.32,0,.49V26.51c0,.18,0,.36,0,.53s0,.06.07.06.07,0,.08,0a1.23,1.23,0,0,0,.14-.25A10.28,10.28,0,0,1,134.65,23a14.38,14.38,0,0,1,5.76-2.55,17.81,17.81,0,0,1,4.05-.37,16.06,16.06,0,0,1,6.37,1.34,11.82,11.82,0,0,1,5.57,5.07,15.23,15.23,0,0,1,1.77,5.11,22.47,22.47,0,0,1,.27,3.48V59.68c0,.71.08.66-.65.66h-6.26c-.61,0-.55,0-.55-.55V37.32a16.8,16.8,0,0,0-.2-2.75,9.92,9.92,0,0,0-1.21-3.46,7.49,7.49,0,0,0-4.93-3.71,11.51,11.51,0,0,0-4-.23,11.87,11.87,0,0,0-2.42.52,8.9,8.9,0,0,0-4.75,3.58,12.62,12.62,0,0,0-1.88,4.49,21.57,21.57,0,0,0-.42,4.68V59.61c0,.16,0,.32,0,.49s-.05.24-.27.25h-6.69c-.51,0-.48,0-.48-.48V49.44Q123.69,41,123.68,32.53Z"/><path d="M303.57,40.73V60.14a.18.18,0,0,1-.19.18h-7c-.24,0-.26,0-.26-.29,0-.6,0-1.2,0-1.8v-3.4c0-.13,0-.26,0-.39s0-.1-.07-.11a.08.08,0,0,0-.11,0c0,.06-.07.11-.1.16a10.72,10.72,0,0,1-3.65,4.14A14.54,14.54,0,0,1,286.76,61a18.49,18.49,0,0,1-5.45.27,14.55,14.55,0,0,1-5.26-1.43A11.89,11.89,0,0,1,271,55.13,14.93,14.93,0,0,1,269,49.49a22,22,0,0,1-.21-3.24V21.74c0-.74-.06-.66.64-.66h6.22c.6,0,.58,0,.58.58V43.89a19.87,19.87,0,0,0,.14,2.56,10.8,10.8,0,0,0,1,3.47A7.54,7.54,0,0,0,282.62,54a11.09,11.09,0,0,0,3.81.26,12.78,12.78,0,0,0,2.52-.5,9,9,0,0,0,5.13-4,12.52,12.52,0,0,0,1.57-3.89,20.41,20.41,0,0,0,.48-4.67q0-9.68,0-19.36a1.42,1.42,0,0,1,.07-.76,1.93,1.93,0,0,1,.72,0c2,0,4.07,0,6.11,0,.57,0,.56,0,.56.56Q303.55,31.19,303.57,40.73Z"/><path d="M115.21,26.56c0,.11-.14.16-.24.23-1.72,1.31-3.46,2.61-5.19,3.92l-.15.12c-.16.11-.19.11-.32,0a12.12,12.12,0,0,0-2.14-2A9,9,0,0,0,102,27.1a10.58,10.58,0,0,0-3.5.38,7.53,7.53,0,0,0-1.94.87A3.32,3.32,0,0,0,95,30.45a3.86,3.86,0,0,0,1.2,4A8.79,8.79,0,0,0,98.73,36a16.08,16.08,0,0,0,3.67,1.06,35.94,35.94,0,0,1,5,1.18c.87.29,1.75.58,2.59.95a12.1,12.1,0,0,1,3,1.89,9.12,9.12,0,0,1,3.11,5.55,13.35,13.35,0,0,1-.21,5.59,9,9,0,0,1-1.1,2.57,12.13,12.13,0,0,1-5.12,4.61,17.62,17.62,0,0,1-4.51,1.46,26.2,26.2,0,0,1-7,.36,22.53,22.53,0,0,1-5.33-1,13.82,13.82,0,0,1-5-2.89,20.24,20.24,0,0,1-2.41-2.66,2.43,2.43,0,0,1-.14-.2.13.13,0,0,1,0-.17l.18-.16,5-4.14c.34-.28.3-.28.62,0a23.86,23.86,0,0,0,3.53,2.8A9.47,9.47,0,0,0,99,54.3a14.17,14.17,0,0,0,4.77-.31,8.11,8.11,0,0,0,2.25-.88,6.32,6.32,0,0,0,1.55-1.32,3.94,3.94,0,0,0-.21-5.11A8.18,8.18,0,0,0,104.77,45a18.39,18.39,0,0,0-3-1c-1.17-.26-2.34-.5-3.5-.78A41.83,41.83,0,0,1,94.14,42a12.86,12.86,0,0,1-3.66-2,8.82,8.82,0,0,1-3.41-5.84,13.09,13.09,0,0,1,.16-4.67A10.49,10.49,0,0,1,90.48,24a13.89,13.89,0,0,1,4.66-2.74,19.34,19.34,0,0,1,4.19-1A19.94,19.94,0,0,1,110,21.87a11.86,11.86,0,0,1,5.1,4.49.75.75,0,0,1,.07.12S115.2,26.52,115.21,26.56Z"/><path d="M240.59,50c.39.31,5,5,5.25,5.27a1.61,1.61,0,0,1-.33.41,16.93,16.93,0,0,1-8.08,4.76,24.64,24.64,0,0,1-7.55.83,22.39,22.39,0,0,1-5.91-1A19,19,0,0,1,215.56,55a18.85,18.85,0,0,1-4.29-7.9,23.16,23.16,0,0,1-.79-5.55,24.64,24.64,0,0,1,.41-5.22A19.77,19.77,0,0,1,216.12,26a19,19,0,0,1,8.06-4.85,21.7,21.7,0,0,1,4.86-.9,25.56,25.56,0,0,1,2.77-.06A22.1,22.1,0,0,1,241,22.52a17.65,17.65,0,0,1,4.76,3.56,2,2,0,0,1,.2.21.13.13,0,0,1,0,.21,1.9,1.9,0,0,1-.21.19l-5,4.54c-.34.31-.3.33-.64,0a15.79,15.79,0,0,0-3.37-2.6,11,11,0,0,0-4.17-1.35,15.46,15.46,0,0,0-4,0,10.78,10.78,0,0,0-7.23,4.3,14,14,0,0,0-2.39,5.16,16.91,16.91,0,0,0-.47,5.35,13.69,13.69,0,0,0,2.66,7.43,11.62,11.62,0,0,0,7.73,4.66,14.41,14.41,0,0,0,5.55-.2,10.06,10.06,0,0,0,3.1-1.34,13.74,13.74,0,0,0,2.72-2.26Z"/><path d="M251.18,32.53V5.4c0-.18,0-.36,0-.54a.17.17,0,0,1,.17-.19h6.75c.57,0,.54,0,.54.52V59.6c0,.18,0,.36,0,.53a.18.18,0,0,1-.18.19h-6.7c-.63,0-.58,0-.58-.58Z"/></g></g></svg>